<?xml version="1.0" standalone="no"?><!DOCTYPE svg PUBLIC "-//W3C//DTD SVG 1.1//EN" "http://www.w3.org/Graphics/SVG/1.1/DTD/svg11.dtd"><svg t="1733810459861" class="icon" viewBox="0 0 1024 1024" version="1.1" xmlns="http://www.w3.org/2000/svg" p-id="4990" xmlns:xlink="http://www.w3.org/1999/xlink" width="200" height="200"><path d="M671.29 881.53H371.12a51.11 51.11 0 0 1-51-47.12L280.83 451h480.75l-39.32 383.41a51.12 51.12 0 0 1-50.97 47.12z" fill="#FF8B29" p-id="4991"></path><path d="M353 834.15l-39.29-383.44h-33L320 834.15a51.11 51.11 0 0 0 51 47.12h33a51.11 51.11 0 0 1-51-47.12z" fill="#F27314" p-id="4992"></path><path d="M761.21 434h-480c0-132.55 107.45-240 240-240s240 107.45 240 240z" fill="#FFE3C5" p-id="4993"></path><path d="M619.57 728.53H422.85a25.6 25.6 0 0 1-25.53-23.61l-7.24-92.32a25.61 25.61 0 0 1 25.53-27.6h211.2a25.61 25.61 0 0 1 25.53 27.61l-7.24 92.32a25.62 25.62 0 0 1-25.53 23.6z" fill="#FFFFFF" p-id="4994"></path><path d="M681.41 255.31A240.27 240.27 0 0 0 612.5 212L556 397l85.74-0.54z" fill="#FFBC85" p-id="4995"></path><path d="M699.16 154.89l-54.25-15.25a10.09 10.09 0 0 0-12.38 6.76L612.5 212a240.27 240.27 0 0 1 68.91 43.32l24.73-88a10.08 10.08 0 0 0-6.98-12.43z" fill="#FE972B" p-id="4996"></path><path d="M547.66 195.41a243 243 0 0 0-26-1.41c-132.54 0-240 107.45-240 240h50c0.1-124.35 94.79-226.56 216-238.59z" fill="#FFEDDC" p-id="4997"></path><path d="M236.18 396.64m43.5 0l483.06 0q43.5 0 43.5 43.5l0 8.93q0 43.5-43.5 43.5l-483.06 0q-43.5 0-43.5-43.5l0-8.93q0-43.5 43.5-43.5Z" fill="#FFD44A" p-id="4998"></path><path d="M275.68 448.83v-8.93a43.5 43.5 0 0 1 43.5-43.5h-40a43.5 43.5 0 0 0-43.5 43.5v8.93a43.51 43.51 0 0 0 43.5 43.5h40a43.51 43.51 0 0 1-43.5-43.5z" fill="#FFC82C" p-id="4999"></path></svg>